<svg xmlns="http://www.w3.org/2000/svg" viewBox="0 0 1866.61 749.2"><defs><style>.cls-1{fill:#1c3c80;}.cls-2{font-size:285.43px;fill:#b50e0b;font-family:GoodTimingRg-Bold, Good Timing;font-weight:700;}.cls-3{fill:#212121;}</style></defs><title>Ativo 1</title><g id="Camada_2" data-name="Camada 2"><g id="Rodrigues"><path class="cls-1" d="M180.71,699.2l-44.44-47H83.63v-44h76.16c16.32,0,27.88-9.34,27.88-23.5s-11.56-23.5-27.88-23.5H66.63v138h-60v-186H161.11c51.38,0,88.62,28,88.62,69.54,0,28.33-17.93,50.65-45.86,61.81l56.55,54.65Z"/><path class="cls-1" d="M362.87,699.2c-52.93,0-91.51-29-91.51-71.14s38.58-70.86,91.51-70.86h23.91c52.93,0,91.51,28.74,91.51,70.86s-38.58,71.14-91.51,71.14Zm24-43c20,0,34.8-11.48,34.8-28.14s-14.81-27.86-34.8-27.86H362.42c-20.33,0-34.81,11.2-34.81,27.86s14.48,28.14,34.81,28.14Z"/><path class="cls-1" d="M593.83,699.2C540.73,699.2,502,672.39,502,625c0-14.12,3.44-26.54,10.27-36.83,19.87-30,64.27-32,81.89-32.78,1.4-.07,13.58,0,38,0,14.45,0,26.34.1,34.27.14l-1.2,43.18c-20.76,0-32.07,0-38.64,0-2.15,0-8.77,0-17.72,0-7.32,0-7.76,0-8.94,0-10.35.1-28.46.33-37,11.91-3,4.1-4.61,9.39-4.61,16.12,0,19.73,14.57,29.45,35,29.45h29.15c19.77,0,30.18-8.58,30.18-24.59V499.2h57V631.3c0,43.37-29.12,67.9-85.65,67.9Z"/><path class="cls-1" d="M743.63,699.2V624.53c0-42.71,29.4-67.33,85.13-67.33h47.87v43H830c-19.45,0-29.35,8-29.35,24.25V699.2Z"/><path class="cls-1" d="M926.62,543.2c-15,0-26-8-26-20.78,0-12.24,10.93-20.22,26-20.22h7.86c15,0,25.62,8,25.62,20.22,0,12.81-10.59,20.78-25.62,20.78Zm-25,156v-142h57v142Z"/><path class="cls-1" d="M1062.63,749.2v-44h43.31c25.1,0,33.69-9.13,33.69-27.11V620.62c0-13.52-10.41-20.42-29.49-20.42h-29.49c-20.82,0-35.39,7.19-35.39,23.87a19.83,19.83,0,0,0,2.84,10.86c6.66,10.5,24.38,11.33,38.45,11.86l11.72,0h24.11c6.91,0,16.86,0,29.29,0q.18,20.4.38,40.81h-34.18c-38.42,0-38.07,0-38.61,0-16-.73-66.32-2.74-84.75-35.24a57.86,57.86,0,0,1-7.19-28.89c0-43.14,39.21-67.3,97.15-67.3h31.62c51.07,0,80.54,24.67,80.54,68.26v54.2c0,47.89-27.07,70.54-91.16,70.54Z"/><path class="cls-1" d="M1316.2,699.2c-56.48,0-85.57-24.47-85.57-67.72V557.2h57v74.47c0,16,10.31,24.53,29.89,24.53h30.22c19.93,0,29.89-8.56,29.89-24.53V557.2h57v74.28c0,43.25-29.09,67.72-85.57,67.72Z"/><path class="cls-1" d="M1555.09,699.2c-52.93,0-91.52-29-91.52-71.14s38.59-70.86,91.52-70.86h42.53c39.22,0,58.32,18.76,58.32,45.48,0,24.73-16.37,37.52-55.6,37.52h-90.5q2.27-13,4.54-26h75.3c9.1,0,13.65-3.2,13.65-10.2s-4.2-10.8-13.3-10.8h-36.26c-20.36,0-34.85,12.37-34.85,34.22,0,21.57,14.49,32.78,34.85,32.78h93.86v39Z"/><path class="cls-1" d="M1680.63,699.2v-39h120.69c7.54,0,12-3.14,12-9.14,0-5.43-3.77-8.86-12-8.86h-67.55c-34.79,0-55.26-18.48-55.26-42.64,0-25.87,23.54-42.36,54.92-42.36h125.2v39H1741.58c-7.32,0-11.85,3.2-11.85,9s3.83,9,11.85,9h70.29c34.68,0,54.74,17.85,54.74,42.22,0,26.07-23.12,42.78-54.74,42.78Z"/></g><g id="Toninho"><text class="cls-2" transform="translate(0 428.79) scale(1.2 1)">Toninho</text></g><g id="Grupo"><path class="cls-3" d="M99.34,145.77c-53.55,0-92.57-29.38-92.57-72.89S45.79,0,99.34,0H193V37.45H96.11C71.63,37.45,53.6,51.8,53.6,72.88c0,20.86,18,35.21,42.51,35.21h52.21v-20H91.54V57H193v88.81Z"/><path class="cls-3" d="M222.32,145.77V87.24c0-33.87,23.14-53.38,67-53.38H327V68H290.4c-15.34,0-23.14,6.28-23.14,19.06v58.76Z"/><path class="cls-3" d="M412.84,145.77c-44.4,0-67.27-19.29-67.27-53.38V33.86h44.94V92.39c0,12.56,8.07,19.29,23.41,19.29H437.6c15.61,0,23.41-6.73,23.41-19.29V33.86H506V92.39c0,34.09-22.87,53.38-67.27,53.38Z"/><path class="cls-3" d="M531,184.79V87.24c0-34.09,22.87-53.38,67.27-53.38h23.69c41.71,0,72.38,21.08,72.38,58.31,0,11-2.65,20.6-7.91,28.62C671.13,144.11,637,146,621.67,146.89c-3,.17-1.16,0-28.69,0-13.94,0-25.33.11-32.78.17l5.34-34c17.68,0,26.68,0,31.65,0h19.63c8.19-.1,22.26-.32,28.91-9.25,2.4-3.23,3.65-7.41,3.65-12.73,0-15.92-11.57-22.88-27.44-22.88H599.33c-15.34,0-23.41,6.51-23.41,19.07v97.55Z"/><path class="cls-3" d="M784.47,145.77c-41.71,0-72.12-22.88-72.12-56.07s30.41-55.84,72.12-55.84h18.84c41.71,0,72.12,22.65,72.12,55.84S845,145.77,803.31,145.77Zm18.84-34.09c15.6,0,27.17-9,27.17-22S818.91,68,803.31,68H784.2C768.32,68,757,76.7,757,89.7s11.3,22,27.18,22Z"/></g></g></svg>